#!OML:ASF H:\BabyWalks\Project 1\Capture day 1\Session 1\baby.ASF
:FULLY-SPECIFIED
:DEGREES
221
root -14.3821 16.1086 -2.36763 111.088 -85.8891 -128.212
lowerback 11.6617 0.160383 0.93429
upperback 3.15174 0.22466 0.572035
thorax -3.24047 0.0558231 0.0390701
lowerneck -6.35059 -0.0485956 4.64244
upperneck 5.47903 -0.192171 -4.50712
head 2.89092 -0.157753 -2.31162
rclavicle 3.65267e-015 -2.0276e-014
rhumerus 23.1629 -6.07685 -65.5704
rradius 68.1063
rwrist 22.0621
rhand 22.5611 -24.1401
rfingers 7.12502
rthumb 46.913 -46.8446
lclavicle 3.65267e-015 -2.0276e-014
lhumerus 23.5495 -0.155555 61.3267
lradius 74.1096
lwrist -6.58347
lhand 25.1879 31.1923
lfingers 7.12502
lthumb 49.3336 52.758
rfemur 2.40646 -13.0916 10.837
rtibia 52.8058
rfoot -31.6638 -9.2183
rtoes -12.9603
lfemur 1.87991 11.5733 0.382457
ltibia 50.4166
lfoot -34.6321 -7.52697
ltoes -13.4028
222
root -14.3794 16.1005 -2.36862 111.899 -85.8438 -129.058
lowerback 11.7055 0.176558 0.91361
upperback 3.16733 0.243728 0.593116
thorax -3.24828 0.064843 0.0698927
lowerneck -6.49342 -0.0229841 4.58341
upperneck 5.61872 -0.156795 -4.48119
head 2.96683 -0.141802 -2.29447
rclavicle 1.2424e-016 -1.80894e-014
rhumerus 23.2347 -6.07324 -65.5784
rradius 68.1698
rwrist 22.0345
rhand 22.5469 -24.1125
rfingers 7.12502
rthumb 46.8999 -46.8227
lclavicle 1.2424e-016 -1.80894e-014
lhumerus 23.537 -0.14694 61.2493
lradius 74.1307
lwrist -6.6559
lhand 25.1748 31.1554
lfingers 7.12502
lthumb 49.3216 52.7271
rfemur 2.35276 -13.0231 10.8639
rtibia 52.9097
rfoot -31.7105 -9.21067
rtoes -12.9347
lfemur 1.89818 11.6308 0.433834
ltibia 50.4901
lfoot -34.6892 -7.49831
ltoes -13.5458
223
root -14.3779 16.0954 -2.36871 112.34 -85.7922 -129.543
lowerback 11.7631 0.179669 0.931118
upperback 3.17085 0.250383 0.607242
thorax -3.27606 0.0676082 0.0736947
lowerneck -6.45785 0.0205375 4.44688
upperneck 5.58685 -0.0941156 -4.34626
head 2.9501 -0.108526 -2.21992
rclavicle 8.19987e-016 5.56597e-015
rhumerus 23.271 -6.04845 -65.5701
rradius 68.2466
rwrist 21.9744
rhand 22.5203 -24.1133
rfingers 7.12502
rthumb 46.8753 -46.8343
lclavicle 8.19987e-016 5.56597e-015
lhumerus 23.4831 -0.158371 61.1413
lradius 74.1627
lwrist -6.69932
lhand 25.1813 31.0916
lfingers 7.12502
lthumb 49.3276 52.6603
rfemur 2.34249 -12.9373 10.9157
rtibia 52.9998
rfoot -31.746 -9.26939
rtoes -12.9484
lfemur 1.9391 11.6646 0.496991
ltibia 50.5522
lfoot -34.7339 -7.52521
ltoes -13.4924
224
root -14.3756 16.0921 -2.36732 113.089 -85.8535 -130.299
lowerback 11.8011 0.180771 0.86458
upperback 3.1629 0.243741 0.583006
thorax -3.30547 0.0645548 0.086881
lowerneck -6.45181 -0.00059867 4.47904
upperneck 5.5492 -0.125235 -4.3554
head 2.93489 -0.123522 -2.22962
rclavicle 4.22417e-016 1.78906e-014
rhumerus 23.324 -6.04725 -65.591
rradius 68.2949
rwrist 21.9097
rhand 22.5577 -24.0858
rfingers 7.12502
rthumb 46.9099 -46.7916
lclavicle 4.22417e-016 1.78906e-014
lhumerus 23.4413 -0.16233 61.0531
lradius 74.2147
lwrist -6.69802
lhand 25.203 31.1084
lfingers 7.12502
lthumb 49.3475 52.6671
rfemur 2.29825 -12.9164 10.8194
rtibia 53.0911
rfoot -31.8016 -9.2723
rtoes -12.985
lfemur 1.93318 11.7397 0.436196
ltibia 50.6019
lfoot -34.7842 -7.59079
ltoes -13.4407
225
root -14.3733 16.0845 -2.36182 113.337 -85.9561 -130.558
lowerback 11.8533 0.155184 0.832336
upperback 3.15068 0.205214 0.537677
thorax -3.34696 0.0455497 0.0633958
lowerneck -6.50282 -0.0217903 4.52337
upperneck 5.59905 -0.159459 -4.34138
head 2.96005 -0.139346 -2.23596
rclavicle 9.93923e-017 -1.13307e-014
rhumerus 23.365 -6.032 -65.6079
rradius 68.3527
rwrist 21.8662
rhand 22.6059 -24.0937
rfingers 7.12502
rthumb 46.9545 -46.78
lclavicle 9.93923e-017 -1.13307e-014
lhumerus 23.3794 -0.169567 60.9366
lradius 74.2637
lwrist -6.615
lhand 25.2446 31.1261
lfingers 7.12502
lthumb 49.3857 52.6655
rfemur 2.28257 -12.9779 10.6405
rtibia 53.1829
rfoot -31.8559 -9.20718
rtoes -12.9522
lfemur 1.90383 11.6807 0.279763
ltibia 50.6621
lfoot -34.8149 -7.51951
ltoes -13.4642
226
root -14.3735 16.0799 -2.36802 113.951 -85.828 -131.228
lowerback 11.896 0.180948 0.819998
upperback 3.16614 0.238827 0.585447
thorax -3.35435 0.0616878 0.115148
lowerneck -6.47314 -0.0370011 4.61774
upperneck 5.55879 -0.181378 -4.44553
head 2.9412 -0.151698 -2.28857
rclavicle 4.09993e-015 9.54166e-015
rhumerus 23.4203 -6.00384 -65.6084
rradius 68.3823
rwrist 21.8189
rhand 22.6146 -24.1107
rfingers 7.12502
rthumb 46.9625 -46.7934
lclavicle 4.09993e-015 9.54166e-015
lhumerus 23.3348 -0.136626 60.8751
lradius 74.267
lwrist -6.55659
lhand 25.2515 31.139
lfingers 7.12502
lthumb 49.392 52.6753
rfemur 2.25724 -12.8286 10.8137
rtibia 53.2865
rfoot -31.9117 -9.32633
rtoes -12.9954
lfemur 1.96745 11.815 0.488624
ltibia 50.7344
lfoot -34.8666 -7.65038
ltoes -13.4294
227
root -14.3723 16.0725 -2.37048 114.326 -85.7555 -131.633
lowerback 11.9499 0.206689 0.845349
upperback 3.1926 0.275306 0.601418
thorax -3.35605 0.0789438 0.112121
lowerneck -6.64915 -0.0598294 4.61819
upperneck 5.63841 -0.217024 -4.44584
head 3.00005 -0.170858 -2.29387
rclavicle -2.28602e-015 7.55382e-015
rhumerus 23.4753 -6.08201 -65.6232
rradius 68.4195
rwrist 21.7893
rhand 22.7004 -24.0678
rfingers 7.12502
rthumb 47.0419 -46.7155
lclavicle -2.28602e-015 7.55382e-015
lhumerus 23.3861 -0.119341 60.8442
lradius 74.2351
lwrist -6.52278
lhand 25.2679 31.091
lfingers 7.12502
lthumb 49.407 52.6196
rfemur 2.21472 -12.7437 10.8986
rtibia 53.3961
rfoot -31.9873 -9.35437
rtoes -12.86
lfemur 1.96964 11.9024 0.602067
ltibia 50.8305
lfoot -34.9185 -7.68656
ltoes -13.4781
